<svg width="100" height="100" viewBox="0 0 100 100" fill="none" xmlns="http://www.w3.org/2000/svg">
<path d="M50 91.6667C52.5804 91.67 55.0977 90.8692 57.202 89.3757C59.3064 87.8822 60.8931 85.7703 61.7417 83.3334H38.2583C39.1069 85.7703 40.6937 87.8822 42.798 89.3757C44.9023 90.8692 47.4196 91.67 50 91.6667V91.6667ZM79.1667 60.775V41.6667C79.1667 28.2625 70.0625 16.9709 57.7292 13.575C56.5083 10.5 53.525 8.33337 50 8.33337C46.475 8.33337 43.4917 10.5 42.2708 13.575C29.9375 16.975 20.8333 28.2625 20.8333 41.6667V60.775L13.7208 67.8875C13.3332 68.2738 13.0257 68.7329 12.8162 69.2385C12.6067 69.7441 12.4992 70.2861 12.5 70.8334V75C12.5 76.1051 12.939 77.1649 13.7204 77.9463C14.5018 78.7277 15.5616 79.1667 16.6667 79.1667H83.3333C84.4384 79.1667 85.4982 78.7277 86.2796 77.9463C87.061 77.1649 87.5 76.1051 87.5 75V70.8334C87.5008 70.2861 87.3934 69.7441 87.1838 69.2385C86.9743 68.7329 86.6669 68.2738 86.2792 67.8875L79.1667 60.775Z" fill="#EF3F37"/>
</svg>
