<svg width="100" height="100" viewBox="0 0 100 100" fill="none" xmlns="http://www.w3.org/2000/svg">
<path d="M70.8333 41.6667C75.2536 41.6667 79.4928 43.4226 82.6184 46.5482C85.744 49.6738 87.5 53.9131 87.5 58.3333V79.1667C87.5 81.3768 86.622 83.4964 85.0592 85.0592C83.4964 86.622 81.3768 87.5 79.1667 87.5H20.8333C18.6232 87.5 16.5036 86.622 14.9408 85.0592C13.378 83.4964 12.5 81.3768 12.5 79.1667V58.3333C12.5 53.9131 14.2559 49.6738 17.3816 46.5482C20.5072 43.4226 24.7464 41.6667 29.1667 41.6667V29.1667H37.5V41.6667H45.8333V29.1667H54.1667V41.6667H62.5V29.1667H70.8333V41.6667ZM29.1667 50C26.9565 50 24.8369 50.878 23.2741 52.4408C21.7113 54.0036 20.8333 56.1232 20.8333 58.3333V62.5H79.1667V58.3333C79.1667 56.1232 78.2887 54.0036 76.7259 52.4408C75.1631 50.878 73.0435 50 70.8333 50H29.1667ZM20.8333 70.8333V79.1667H79.1667V70.8333H20.8333ZM29.1667 16.6667C30.2717 16.6667 31.3315 16.2277 32.1129 15.4463C32.8943 14.6649 33.3333 13.6051 33.3333 12.5C34.4384 12.5 35.4982 12.939 36.2796 13.7204C37.061 14.5018 37.5 15.5616 37.5 16.6667V20.8333C37.5 21.9384 37.061 22.9982 36.2796 23.7796C35.4982 24.561 34.4384 25 33.3333 25C32.2283 25 31.1685 24.561 30.3871 23.7796C29.6057 22.9982 29.1667 21.9384 29.1667 20.8333V16.6667ZM45.8333 16.6667C46.9384 16.6667 47.9982 16.2277 48.7796 15.4463C49.561 14.6649 50 13.6051 50 12.5C51.1051 12.5 52.1649 12.939 52.9463 13.7204C53.7277 14.5018 54.1667 15.5616 54.1667 16.6667V20.8333C54.1667 21.9384 53.7277 22.9982 52.9463 23.7796C52.1649 24.561 51.1051 25 50 25C48.8949 25 47.8351 24.561 47.0537 23.7796C46.2723 22.9982 45.8333 21.9384 45.8333 20.8333V16.6667ZM62.5 16.6667C63.6051 16.6667 64.6649 16.2277 65.4463 15.4463C66.2277 14.6649 66.6667 13.6051 66.6667 12.5C67.7717 12.5 68.8315 12.939 69.6129 13.7204C70.3943 14.5018 70.8333 15.5616 70.8333 16.6667V20.8333C70.8333 21.9384 70.3943 22.9982 69.6129 23.7796C68.8315 24.561 67.7717 25 66.6667 25C65.5616 25 64.5018 24.561 63.7204 23.7796C62.939 22.9982 62.5 21.9384 62.5 20.8333V16.6667Z" fill="#F79F35"/>
</svg>
