<svg width="100" height="100" viewBox="0 0 100 100" fill="none" xmlns="http://www.w3.org/2000/svg">
<path d="M75 53.125L80.975 64.6969L93.75 66.5531L84.375 75L86.7844 87.5L75 80.4688L63.2156 87.5L65.625 75L56.25 66.5531L69.375 64.6969L75 53.125Z" fill="#F79F35"/>
<path d="M18.75 50H37.5V56.25H18.75V50Z" fill="#F79F35"/>
<path d="M18.75 37.5H50V43.75H18.75V37.5Z" fill="#F79F35"/>
<path d="M18.75 25H50V31.25H18.75V25Z" fill="#F79F35"/>
<path d="M50 81.25H12.5V18.75H87.5V50H93.75V18.75C93.75 17.0924 93.0915 15.5027 91.9194 14.3306C90.7473 13.1585 89.1576 12.5 87.5 12.5H12.5C10.8424 12.5 9.25268 13.1585 8.08058 14.3306C6.90848 15.5027 6.25 17.0924 6.25 18.75V81.25C6.25 82.9076 6.90848 84.4973 8.08058 85.6694C9.25268 86.8415 10.8424 87.5 12.5 87.5H50V81.25Z" fill="#F79F35"/>
</svg>
