<svg width="100" height="100" viewBox="0 0 100 100" fill="none" xmlns="http://www.w3.org/2000/svg">
<path fill-rule="evenodd" clip-rule="evenodd" d="M67.8375 44.6627C68.1286 44.953 68.3594 45.2978 68.517 45.6775C68.6745 46.0572 68.7556 46.4642 68.7556 46.8752C68.7556 47.2863 68.6745 47.6933 68.517 48.0729C68.3594 48.4526 68.1286 48.7974 67.8375 49.0877L49.0875 67.8377C48.7973 68.1287 48.4524 68.3596 48.0728 68.5172C47.6931 68.6747 47.2861 68.7558 46.875 68.7558C46.464 68.7558 46.057 68.6747 45.6773 68.5172C45.2977 68.3596 44.9528 68.1287 44.6625 67.8377L35.2875 58.4627C34.997 58.1722 34.7665 57.8272 34.6093 57.4476C34.452 57.068 34.3711 56.6611 34.3711 56.2502C34.3711 55.8393 34.452 55.4324 34.6093 55.0528C34.7665 54.6732 34.997 54.3283 35.2875 54.0377C35.8743 53.4509 36.6702 53.1213 37.5 53.1213C37.9109 53.1213 38.3178 53.2022 38.6974 53.3594C39.0771 53.5167 39.422 53.7472 39.7125 54.0377L46.875 61.2065L63.4125 44.6627C63.7028 44.3717 64.0477 44.1408 64.4273 43.9833C64.807 43.8257 65.214 43.7446 65.625 43.7446C66.0361 43.7446 66.4431 43.8257 66.8227 43.9833C67.2024 44.1408 67.5473 44.3717 67.8375 44.6627V44.6627Z" fill="#F79F35"/>
<path d="M25 9.375H18.75C15.4348 9.375 12.2554 10.692 9.91117 13.0362C7.56696 15.3804 6.25 18.5598 6.25 21.875V87.5C6.25 90.8152 7.56696 93.9946 9.91117 96.3388C12.2554 98.683 15.4348 100 18.75 100H81.25C84.5652 100 87.7446 98.683 90.0888 96.3388C92.433 93.9946 93.75 90.8152 93.75 87.5V21.875C93.75 18.5598 92.433 15.3804 90.0888 13.0362C87.7446 10.692 84.5652 9.375 81.25 9.375H75V15.625H81.25C82.9076 15.625 84.4973 16.2835 85.6694 17.4556C86.8415 18.6277 87.5 20.2174 87.5 21.875V87.5C87.5 89.1576 86.8415 90.7473 85.6694 91.9194C84.4973 93.0915 82.9076 93.75 81.25 93.75H18.75C17.0924 93.75 15.5027 93.0915 14.3306 91.9194C13.1585 90.7473 12.5 89.1576 12.5 87.5V21.875C12.5 20.2174 13.1585 18.6277 14.3306 17.4556C15.5027 16.2835 17.0924 15.625 18.75 15.625H25V9.375Z" fill="#F79F35"/>
<path d="M59.375 6.25C60.2038 6.25 60.9987 6.57924 61.5847 7.16529C62.1708 7.75134 62.5 8.5462 62.5 9.375V15.625C62.5 16.4538 62.1708 17.2487 61.5847 17.8347C60.9987 18.4208 60.2038 18.75 59.375 18.75H40.625C39.7962 18.75 39.0013 18.4208 38.4153 17.8347C37.8292 17.2487 37.5 16.4538 37.5 15.625V9.375C37.5 8.5462 37.8292 7.75134 38.4153 7.16529C39.0013 6.57924 39.7962 6.25 40.625 6.25H59.375ZM40.625 0C38.1386 0 35.754 0.98772 33.9959 2.74587C32.2377 4.50403 31.25 6.8886 31.25 9.375V15.625C31.25 18.1114 32.2377 20.496 33.9959 22.2541C35.754 24.0123 38.1386 25 40.625 25H59.375C61.8614 25 64.246 24.0123 66.0041 22.2541C67.7623 20.496 68.75 18.1114 68.75 15.625V9.375C68.75 6.8886 67.7623 4.50403 66.0041 2.74587C64.246 0.98772 61.8614 0 59.375 0L40.625 0Z" fill="#F79F35"/>
</svg>
