<svg width="100" height="100" viewBox="0 0 100 100" fill="none" xmlns="http://www.w3.org/2000/svg">
<path d="M25.166 73.4375C25.3613 73.4375 25.5566 73.418 25.752 73.3887L42.1777 70.5078C42.373 70.4687 42.5586 70.3809 42.6953 70.2344L84.0918 28.8379C84.1823 28.7475 84.2542 28.6402 84.3032 28.5221C84.3522 28.404 84.3774 28.2773 84.3774 28.1494C84.3774 28.0215 84.3522 27.8949 84.3032 27.7767C84.2542 27.6586 84.1823 27.5513 84.0918 27.4609L67.8613 11.2207C67.6758 11.0352 67.4316 10.9375 67.168 10.9375C66.9043 10.9375 66.6602 11.0352 66.4746 11.2207L25.0781 52.6172C24.9316 52.7637 24.8438 52.9395 24.8047 53.1348L21.9238 69.5605C21.8288 70.0837 21.8628 70.6221 22.0227 71.1292C22.1827 71.6363 22.4638 72.0967 22.8418 72.4707C23.4863 73.0957 24.2969 73.4375 25.166 73.4375V73.4375ZM31.748 56.4062L67.168 20.9961L74.3262 28.1543L38.9062 63.5645L30.2246 65.0977L31.748 56.4062V56.4062ZM85.9375 81.6406H14.0625C12.334 81.6406 10.9375 83.0371 10.9375 84.7656V88.2812C10.9375 88.7109 11.2891 89.0625 11.7188 89.0625H88.2812C88.7109 89.0625 89.0625 88.7109 89.0625 88.2812V84.7656C89.0625 83.0371 87.666 81.6406 85.9375 81.6406Z" fill="white"/>
</svg>
