<svg width="100" height="100" viewBox="0 0 100 100" fill="none" xmlns="http://www.w3.org/2000/svg">
<path d="M19.8568 78.125H90.625V3.125H19.6615C16.5221 3.13509 13.5141 4.38671 11.2941 6.60665C9.07421 8.82659 7.82259 11.8346 7.8125 14.974V84.0332H7.81465C7.81465 84.0627 7.8125 84.0918 7.8125 84.1217C7.8125 91.0357 13.2387 96.8756 19.6615 96.8756H90.625V90.625H19.6615C16.7312 90.625 14.0625 87.5252 14.0625 84.1211C14.0625 80.8711 16.7158 78.125 19.8568 78.125ZM70.3125 9.44004V43.1932L60.8594 34.8943L51.5625 43.1445V9.44004H70.3125ZM45.3125 9.375V51.5625H51.4924L60.882 43.2307L70.3721 51.5625H76.5625V9.375H84.375V71.875H26.5781L26.5625 9.375H45.3125ZM19.6615 9.375H20.3125L20.3273 71.875H19.8561C17.8238 71.8754 15.8268 72.4061 14.0625 73.4146V15.0229C14.0577 13.5319 14.6445 12.1 15.6942 11.0412C16.7438 9.98238 18.1706 9.38316 19.6615 9.375V9.375Z" fill="#F79F35"/>
</svg>
