<svg width="100" height="100" viewBox="0 0 100 100" fill="none" xmlns="http://www.w3.org/2000/svg">
<path d="M88.8889 16.6666H11.1111C9.63769 16.6666 8.22461 17.2519 7.18274 18.2938C6.14087 19.3357 5.55556 20.7488 5.55556 22.2222V77.7777C5.55556 79.2512 6.14087 80.6642 7.18274 81.7061C8.22461 82.748 9.63769 83.3333 11.1111 83.3333H88.8889C90.3623 83.3333 91.7754 82.748 92.8173 81.7061C93.8591 80.6642 94.4444 79.2512 94.4444 77.7777V22.2222C94.4444 20.7488 93.8591 19.3357 92.8173 18.2938C91.7754 17.2519 90.3623 16.6666 88.8889 16.6666V16.6666ZM84.6111 77.7777H15.7222L35.1667 57.6666L31.1667 53.8055L11.1111 74.5555V26.4444L45.6389 60.8055C46.6798 61.8402 48.0879 62.421 49.5556 62.421C51.0233 62.421 52.4313 61.8402 53.4722 60.8055L88.8889 25.5833V74.1944L68.4444 53.75L64.5278 57.6666L84.6111 77.7777ZM14.75 22.2222H84.3889L49.5556 56.8611L14.75 22.2222Z" fill="#F79F35"/>
</svg>
