<svg width="100" height="100" viewBox="0 0 100 100" fill="none" xmlns="http://www.w3.org/2000/svg">
<path fill-rule="evenodd" clip-rule="evenodd" d="M71.875 6.25C71.0462 6.25 70.2513 5.92076 69.6653 5.33471C69.0792 4.74866 68.75 3.9538 68.75 3.125C68.75 2.2962 69.0792 1.50134 69.6653 0.915291C70.2513 0.32924 71.0462 0 71.875 0L96.875 0C97.7038 0 98.4987 0.32924 99.0847 0.915291C99.6708 1.50134 100 2.2962 100 3.125V28.125C100 28.9538 99.6708 29.7487 99.0847 30.3347C98.4987 30.9208 97.7038 31.25 96.875 31.25C96.0462 31.25 95.2513 30.9208 94.6653 30.3347C94.0792 29.7487 93.75 28.9538 93.75 28.125V10.6688L72.1875 32.2313C74.0454 35.8069 75.0115 39.7786 75.0034 43.8081C74.9954 47.8375 74.0135 51.8054 72.1413 55.3735C70.2691 58.9417 67.5622 62.0045 64.2511 64.3009C60.9401 66.5973 57.123 68.0594 53.125 68.5625V81.25H62.5C63.3288 81.25 64.1237 81.5792 64.7097 82.1653C65.2958 82.7513 65.625 83.5462 65.625 84.375C65.625 85.2038 65.2958 85.9987 64.7097 86.5847C64.1237 87.1708 63.3288 87.5 62.5 87.5H53.125V96.875C53.125 97.7038 52.7958 98.4987 52.2097 99.0847C51.6237 99.6708 50.8288 100 50 100C49.1712 100 48.3763 99.6708 47.7903 99.0847C47.2042 98.4987 46.875 97.7038 46.875 96.875V87.5H37.5C36.6712 87.5 35.8763 87.1708 35.2903 86.5847C34.7042 85.9987 34.375 85.2038 34.375 84.375C34.375 83.5462 34.7042 82.7513 35.2903 82.1653C35.8763 81.5792 36.6712 81.25 37.5 81.25H46.875V68.5625C42.874 68.0573 39.0546 66.5916 35.7427 64.2907C32.4308 61.9897 29.7247 58.9217 27.8553 55.3483C25.9859 51.775 25.0087 47.8025 25.007 43.7697C25.0053 39.737 25.9793 35.7637 27.8458 32.1888C29.7122 28.614 32.4158 25.5437 35.7258 23.24C39.0358 20.9363 42.854 19.4675 46.8546 18.959C50.8552 18.4505 54.9194 18.9173 58.7005 20.3197C62.4816 21.722 65.8673 24.0183 68.5688 27.0125L89.3313 6.25H71.875ZM65.6438 33.4125C62.9013 29.2635 58.6229 26.3739 53.7499 25.3794C48.8769 24.3849 43.8084 25.3669 39.6594 28.1094C35.5104 30.8519 32.6208 35.1302 31.6263 40.0032C30.6318 44.8763 31.6138 49.9448 34.3563 54.0937C37.0996 58.2427 41.3787 61.132 46.2523 62.1259C51.1259 63.1199 56.1948 62.1371 60.3438 59.3938C64.4927 56.6504 67.382 52.3713 68.3759 47.4977C69.3699 42.6241 68.3871 37.5552 65.6438 33.4062V33.4125Z" fill="#F79F35"/>
</svg>
