<svg width="100" height="100" viewBox="0 0 100 100" fill="none" xmlns="http://www.w3.org/2000/svg">
<path fill-rule="evenodd" clip-rule="evenodd" d="M31.1042 4.44163C35.9917 4.21663 37.55 4.16663 50 4.16663C62.45 4.16663 64.0083 4.22079 68.8917 4.44163C73.775 4.66246 77.1083 5.44163 80.025 6.57079C83.0792 7.72496 85.85 9.52913 88.1417 11.8625C90.475 14.15 92.275 16.9166 93.425 19.975C94.5583 22.8916 95.3333 26.225 95.5583 31.1C95.7833 35.9958 95.8333 37.5541 95.8333 50C95.8333 62.45 95.7792 64.0083 95.5583 68.8958C95.3375 73.7708 94.5583 77.1041 93.425 80.0208C92.275 83.0795 90.472 85.8508 88.1417 88.1416C85.85 90.475 83.0792 92.275 80.025 93.425C77.1083 94.5583 73.775 95.3333 68.9 95.5583C64.0083 95.7833 62.45 95.8333 50 95.8333C37.55 95.8333 35.9917 95.7791 31.1042 95.5583C26.2292 95.3375 22.8958 94.5583 19.9792 93.425C16.9205 92.2748 14.1492 90.4719 11.8583 88.1416C9.52658 85.8527 7.72214 83.0828 6.57083 80.025C5.44166 77.1083 4.66666 73.775 4.44166 68.9C4.21666 64.0041 4.16666 62.4458 4.16666 50C4.16666 37.55 4.22083 35.9916 4.44166 31.1083C4.6625 26.225 5.44166 22.8916 6.57083 19.975C7.72384 16.917 9.52966 14.1471 11.8625 11.8583C14.1502 9.52705 16.9186 7.72264 19.975 6.57079C22.8917 5.44163 26.225 4.66663 31.1 4.44163H31.1042ZM68.5208 12.6916C63.6875 12.4708 62.2375 12.425 50 12.425C37.7625 12.425 36.3125 12.4708 31.4792 12.6916C27.0083 12.8958 24.5833 13.6416 22.9667 14.2708C20.8292 15.1041 19.3 16.0916 17.6958 17.6958C16.1752 19.1752 15.0049 20.9761 14.2708 22.9666C13.6417 24.5833 12.8958 27.0083 12.6917 31.4791C12.4708 36.3125 12.425 37.7625 12.425 50C12.425 62.2375 12.4708 63.6875 12.6917 68.5208C12.8958 72.9916 13.6417 75.4166 14.2708 77.0333C15.0042 79.0208 16.175 80.825 17.6958 82.3041C19.175 83.825 20.9792 84.9958 22.9667 85.7291C24.5833 86.3583 27.0083 87.1041 31.4792 87.3083C36.3125 87.5291 37.7583 87.575 50 87.575C62.2417 87.575 63.6875 87.5291 68.5208 87.3083C72.9917 87.1041 75.4167 86.3583 77.0333 85.7291C79.1708 84.8958 80.7 83.9083 82.3042 82.3041C83.825 80.825 84.9958 79.0208 85.7292 77.0333C86.3583 75.4166 87.1042 72.9916 87.3083 68.5208C87.5292 63.6875 87.575 62.2375 87.575 50C87.575 37.7625 87.5292 36.3125 87.3083 31.4791C87.1042 27.0083 86.3583 24.5833 85.7292 22.9666C84.8958 20.8291 83.9083 19.3 82.3042 17.6958C80.8247 16.1753 79.0238 15.005 77.0333 14.2708C75.4167 13.6416 72.9917 12.8958 68.5208 12.6916V12.6916ZM44.1458 64.1291C47.4152 65.4901 51.0557 65.6738 54.4455 64.6488C57.8353 63.6238 60.7641 61.4538 62.7317 58.5093C64.6993 55.5648 65.5836 52.0286 65.2335 48.5046C64.8835 44.9805 63.3208 41.6873 60.8125 39.1875C59.2135 37.5894 57.28 36.3658 55.1514 35.6047C53.0227 34.8436 50.7518 34.564 48.5021 34.7859C46.2523 35.0078 44.0798 35.7257 42.1408 36.888C40.2019 38.0503 38.5448 39.6281 37.2888 41.5077C36.0328 43.3873 35.2091 45.522 34.8771 47.7581C34.5452 49.9943 34.7131 52.2762 35.3689 54.4396C36.0247 56.603 37.152 58.5942 38.6697 60.2696C40.1873 61.9451 42.0576 63.2632 44.1458 64.1291ZM33.3417 33.3416C35.5293 31.154 38.1263 29.4187 40.9846 28.2348C43.8428 27.0509 46.9063 26.4415 50 26.4415C53.0937 26.4415 56.1572 27.0509 59.0154 28.2348C61.8737 29.4187 64.4707 31.154 66.6583 33.3416C68.8459 35.5292 70.5812 38.1263 71.7652 40.9845C72.9491 43.8428 73.5584 46.9062 73.5584 50C73.5584 53.0937 72.9491 56.1571 71.7652 59.0154C70.5812 61.8736 68.8459 64.4707 66.6583 66.6583C62.2403 71.0764 56.2481 73.5584 50 73.5584C43.7519 73.5584 37.7597 71.0764 33.3417 66.6583C28.9236 62.2402 26.4416 56.248 26.4416 50C26.4416 43.7519 28.9236 37.7597 33.3417 33.3416V33.3416ZM78.7833 29.95C79.3254 29.4386 79.7594 28.8236 80.0596 28.1415C80.3598 27.4594 80.52 26.724 80.5309 25.9788C80.5418 25.2337 80.403 24.4939 80.1228 23.8033C79.8427 23.1128 79.4268 22.4854 78.8998 21.9585C78.3729 21.4315 77.7455 21.0156 77.055 20.7354C76.3644 20.4553 75.6246 20.3165 74.8795 20.3274C74.1343 20.3383 73.3989 20.4985 72.7168 20.7987C72.0347 21.0989 71.4197 21.5329 70.9083 22.075C69.9138 23.1292 69.3693 24.5296 69.3904 25.9788C69.4115 27.428 69.9966 28.812 71.0215 29.8368C72.0463 30.8617 73.4302 31.4467 74.8795 31.4679C76.3287 31.489 77.729 30.9445 78.7833 29.95V29.95Z" fill="#F79F35"/>
</svg>
