<svg width="100" height="100" viewBox="0 0 100 100" fill="none" xmlns="http://www.w3.org/2000/svg">
<path d="M50 6.25C40.8865 6.26075 32.1493 9.88585 25.7051 16.3301C19.2609 22.7743 15.6358 31.5115 15.625 40.625C15.6141 48.0726 18.0468 55.3181 22.55 61.25C22.55 61.25 23.4875 62.4844 23.6406 62.6625L50 93.75L76.3719 62.6469C76.5094 62.4813 77.45 61.25 77.45 61.25L77.4531 61.2406C81.9541 55.3113 84.3857 48.0692 84.375 40.625C84.3642 31.5115 80.7392 22.7743 74.2949 16.3301C67.8507 9.88585 59.1135 6.26075 50 6.25V6.25ZM50 53.125C47.5277 53.125 45.111 52.3919 43.0554 51.0184C40.9998 49.6449 39.3976 47.6926 38.4515 45.4085C37.5054 43.1245 37.2579 40.6111 37.7402 38.1864C38.2225 35.7616 39.413 33.5343 41.1612 31.7862C42.9093 30.038 45.1366 28.8475 47.5614 28.3652C49.9861 27.8829 52.4995 28.1304 54.7835 29.0765C57.0676 30.0226 59.0199 31.6248 60.3934 33.6804C61.7669 35.736 62.5 38.1527 62.5 40.625C62.4959 43.9389 61.1776 47.116 58.8343 49.4593C56.491 51.8026 53.3139 53.1209 50 53.125V53.125Z" fill="#F79F35"/>
</svg>
