<svg width="100" height="100" viewBox="0 0 100 100" fill="none" xmlns="http://www.w3.org/2000/svg">
<path d="M86.2766 13.7219C72.1453 -0.407788 49.2328 -0.407788 35.1016 13.7219C21.9766 26.85 21.0625 47.5422 32.3219 61.7453L29.3641 64.7032L26.9078 62.2469L6.8375 82.3157C5.65937 81.5672 4.75156 81.2469 4.38125 81.6203L3.28281 82.7157C1.49687 84.5016 15.4984 98.5063 17.2844 96.7188L18.3828 95.6219C18.7547 95.2516 18.4312 94.3422 17.6859 93.161L37.7547 73.0938L35.2969 70.6375L38.2562 67.6813C52.4609 78.9422 73.1484 78.0266 86.2781 64.9C100.406 50.7672 100.409 27.8563 86.2766 13.7219V13.7219ZM82.0125 60.6344C70.2344 72.4094 51.1422 72.4125 39.3672 60.6344C27.5906 48.861 27.5906 29.7625 39.3672 17.9891C51.1391 6.21252 70.2375 6.21252 82.0125 17.9891C93.7875 29.7657 93.7844 48.8578 82.0125 60.6344Z" fill="#F79F35"/>
<path d="M86.4328 37.3469C85.1348 40.7949 83.1165 43.9265 80.5125 46.5328C70.3359 56.7109 53.8313 56.7109 43.65 46.5281C39.347 42.2381 36.6856 36.5742 36.1297 30.5234C32.6047 39.8187 34.5672 50.7203 42.0516 58.2047C52.2313 68.3844 68.7359 68.3844 78.9156 58.2047C84.625 52.5 87.1266 44.8031 86.4328 37.3469" fill="#F79F35"/>
</svg>
