<svg width="100" height="100" viewBox="0 0 100 100" fill="none" xmlns="http://www.w3.org/2000/svg">
<path d="M85 72.5V52C86.781 51.0898 88.4576 49.9883 90 48.715V72.5C90 75.8152 88.683 78.9946 86.3388 81.3388C83.9946 83.683 80.8152 85 77.5 85H22.5C19.1848 85 16.0054 83.683 13.6612 81.3388C11.317 78.9946 10 75.8152 10 72.5V32.5C10 29.1848 11.317 26.0054 13.6612 23.6612C16.0054 21.317 19.1848 20 22.5 20H46.035C45.5723 21.6344 45.2627 23.3083 45.11 25H22.5C20.5109 25 18.6032 25.7902 17.1967 27.1967C15.7902 28.6032 15 30.5109 15 32.5V34.01L50 54.6L57.205 50.36C58.83 51.445 60.575 52.365 62.42 53.095L51.27 59.655C50.9511 59.8422 50.5947 59.9564 50.2263 59.9892C49.858 60.0221 49.487 59.9728 49.14 59.845L48.73 59.655L15 39.815V72.5C15 74.4891 15.7902 76.3968 17.1967 77.8033C18.6032 79.2098 20.5109 80 22.5 80H77.5C79.4891 80 81.3968 79.2098 82.8033 77.8033C84.2098 76.3968 85 74.4891 85 72.5V72.5ZM72.5 50C78.4674 50 84.1903 47.6295 88.4099 43.4099C92.6295 39.1903 95 33.4674 95 27.5C95 21.5326 92.6295 15.8097 88.4099 11.5901C84.1903 7.37053 78.4674 5 72.5 5C66.5326 5 60.8097 7.37053 56.5901 11.5901C52.3705 15.8097 50 21.5326 50 27.5C50 33.4674 52.3705 39.1903 56.5901 43.4099C60.8097 47.6295 66.5326 50 72.5 50V50ZM82.5 28.965L84.27 30.73C84.6205 31.0796 84.8594 31.5255 84.9562 32.011C85.053 32.4966 85.0035 33 84.8139 33.4573C84.6243 33.9147 84.3032 34.3055 83.8913 34.5801C83.4793 34.8547 82.9951 35.0009 82.5 35H62.5C62.0049 35.0009 61.5207 34.8547 61.1087 34.5801C60.6968 34.3055 60.3757 33.9147 60.1861 33.4573C59.9965 33 59.947 32.4966 60.0438 32.011C60.1406 31.5255 60.3795 31.0796 60.73 30.73L62.5 28.965V20C62.5 17.3478 63.5536 14.8043 65.4289 12.9289C67.3043 11.0536 69.8478 10 72.5 10C75.1522 10 77.6957 11.0536 79.5711 12.9289C81.4464 14.8043 82.5 17.3478 82.5 20V28.965ZM72.5 45C70.9484 45.0008 69.4347 44.5204 68.1675 43.6249C66.9004 42.7294 65.9422 41.4629 65.425 40H79.575C79.0578 41.4629 78.0996 42.7294 76.8325 43.6249C75.5653 44.5204 74.0516 45.0008 72.5 45V45Z" fill="#F79F35"/>
</svg>
