<svg width="100" height="100" viewBox="0 0 100 100" fill="none" xmlns="http://www.w3.org/2000/svg">
<path d="M90.38 43.085L13.6 5.25504C13.1694 5.04316 12.6869 4.95969 12.2102 5.01458C11.7335 5.06948 11.2826 5.26042 10.9114 5.56462C10.5403 5.86882 10.2645 6.27342 10.1171 6.7301C9.96966 7.18678 9.95678 7.67624 10.08 8.14004L19.93 45.35L10.085 82.52C9.96305 82.9835 9.97689 83.4723 10.1249 83.9281C10.2728 84.3839 10.5487 84.7876 10.9196 85.0911C11.2905 85.3945 11.7408 85.585 12.2169 85.6398C12.693 85.6946 13.1748 85.6114 13.605 85.4001L45.125 69.87C45.3258 67.7485 45.7738 65.6576 46.46 63.64L16.325 78.49L24.54 47.46C24.69 47.485 24.84 47.5 25 47.5H60L60.45 47.46C61.0647 47.3487 61.6155 47.0113 61.9939 46.5142C62.3723 46.0171 62.5508 45.3963 62.4944 44.7742C62.4379 44.152 62.1506 43.5735 61.6889 43.1526C61.2272 42.7317 60.6247 42.4989 60 42.5H25L24.68 42.52L24.37 42.58L16.32 12.17L82.215 44.6401L89.415 48.045L90.38 47.57C90.7987 47.3637 91.1512 47.0443 91.3977 46.648C91.6443 46.2517 91.7749 45.7943 91.7749 45.3275C91.7749 44.8608 91.6443 44.4034 91.3977 44.0071C91.1512 43.6108 90.7987 43.2914 90.38 43.085V43.085Z" fill="#F79F35"/>
<path d="M95 72.5C95 78.4674 92.6295 84.1903 88.4099 88.4099C84.1903 92.6295 78.4674 95 72.5 95C66.5326 95 60.8097 92.6295 56.5901 88.4099C52.3705 84.1903 50 78.4674 50 72.5C50 66.5326 52.3705 60.8097 56.5901 56.5901C60.8097 52.3705 66.5326 50 72.5 50C78.4674 50 84.1903 52.3705 88.4099 56.5901C92.6295 60.8097 95 66.5326 95 72.5V72.5ZM72.5 60C71.837 60 71.2011 60.2634 70.7322 60.7322C70.2634 61.2011 70 61.837 70 62.5V72.5C70 73.163 70.2634 73.7989 70.7322 74.2678C71.2011 74.7366 71.837 75 72.5 75H80C80.663 75 81.2989 74.7366 81.7678 74.2678C82.2366 73.7989 82.5 73.163 82.5 72.5C82.5 71.837 82.2366 71.2011 81.7678 70.7322C81.2989 70.2634 80.663 70 80 70H75V62.5C75 61.837 74.7366 61.2011 74.2678 60.7322C73.7989 60.2634 73.163 60 72.5 60Z" fill="#F79F35"/>
</svg>
