<svg width="100" height="80" viewBox="0 0 100 80" fill="none" xmlns="http://www.w3.org/2000/svg">
<g clip-path="url(#clip0_207:12)">
<path d="M97.0562 8.50938C90.9953 5.96719 84.9297 5 78.8672 5C59.6219 4.99844 40.3781 14.7406 21.1328 14.7406C16.3063 14.7406 11.4828 14.1281 6.65625 12.5969C6.11406 12.425 5.57031 12.3438 5.03906 12.3438C2.35 12.3438 0 14.425 0 17.3141V66.8859C0 68.8594 1.12969 70.7297 2.94375 71.4891C9.00469 74.0328 15.0703 75 21.1328 75C40.3781 75 59.6234 65.2578 78.8688 65.2578C83.6953 65.2578 88.5187 65.8703 93.3453 67.4016C93.8875 67.5734 94.4313 67.6547 94.9625 67.6547C97.6516 67.6547 100.002 65.5734 100.002 62.6844V13.1141C100 11.1391 98.8703 9.27031 97.0562 8.50938V8.50938ZM7.5 20.6594C10.6438 21.4469 13.925 21.8422 17.3 22.0547C16.3813 26.6469 12.3438 30.1078 7.5 30.1078V20.6594ZM7.5 65.1906V57.725C12.8703 57.725 17.2156 61.9859 17.4547 67.3187C13.9344 67.0359 10.6438 66.3328 7.5 65.1906V65.1906ZM50 55C43.0953 55 37.5 48.2828 37.5 40C37.5 31.7156 43.0969 25 50 25C56.9031 25 62.5 31.7156 62.5 40C62.5 48.2859 56.9016 55 50 55ZM92.5 59.3406C89.7625 58.6547 86.9203 58.2703 84.0125 58.0219C84.9297 53.9469 88.3094 50.8531 92.5 50.3219V59.3406ZM92.5 22.4484C87.6734 21.8375 83.9281 17.8078 83.7797 12.8313C86.8328 13.1703 89.7313 13.8047 92.5 14.8094V22.4484Z" fill="#F79F35"/>
</g>
<defs>
<clipPath id="clip0_207:12">
<rect width="100" height="80" fill="white"/>
</clipPath>
</defs>
</svg>
