<svg width="100" height="100" viewBox="0 0 100 100" fill="none" xmlns="http://www.w3.org/2000/svg">
<path d="M27.2222 52.2222H72.7778V60.7778H77.2222V47.7778H52.2222V38.8889H47.7778V47.7778H22.7778V60.7778H27.2222V52.2222V52.2222Z" fill="#F79F35"/>
<path d="M38.8889 63.8889H11.1111C9.63769 63.8889 8.22461 64.4742 7.18274 65.5161C6.14087 66.558 5.55556 67.971 5.55556 69.4445V86.1111C5.55556 87.5846 6.14087 88.9976 7.18274 90.0395C8.22461 91.0814 9.63769 91.6667 11.1111 91.6667H38.8889C40.3623 91.6667 41.7754 91.0814 42.8173 90.0395C43.8591 88.9976 44.4444 87.5846 44.4444 86.1111V69.4445C44.4444 67.971 43.8591 66.558 42.8173 65.5161C41.7754 64.4742 40.3623 63.8889 38.8889 63.8889ZM11.1111 86.1111V69.4445H38.8889V86.1111H11.1111Z" fill="#F79F35"/>
<path d="M88.8889 63.8889H61.1111C59.6377 63.8889 58.2246 64.4742 57.1827 65.5161C56.1409 66.558 55.5556 67.971 55.5556 69.4445V86.1111C55.5556 87.5846 56.1409 88.9976 57.1827 90.0395C58.2246 91.0814 59.6377 91.6667 61.1111 91.6667H88.8889C90.3623 91.6667 91.7754 91.0814 92.8173 90.0395C93.8591 88.9976 94.4444 87.5846 94.4444 86.1111V69.4445C94.4444 67.971 93.8591 66.558 92.8173 65.5161C91.7754 64.4742 90.3623 63.8889 88.8889 63.8889ZM61.1111 86.1111V69.4445H88.8889V86.1111H61.1111Z" fill="#F79F35"/>
<path d="M36.1111 36.1112H63.8889C65.3623 36.1112 66.7754 35.5258 67.8173 34.484C68.8591 33.4421 69.4444 32.029 69.4444 30.5556V13.8889C69.4444 12.4155 68.8591 11.0024 67.8173 9.96056C66.7754 8.91869 65.3623 8.33337 63.8889 8.33337H36.1111C34.6377 8.33337 33.2246 8.91869 32.1827 9.96056C31.1409 11.0024 30.5556 12.4155 30.5556 13.8889V30.5556C30.5556 32.029 31.1409 33.4421 32.1827 34.484C33.2246 35.5258 34.6377 36.1112 36.1111 36.1112ZM36.1111 13.8889H63.8889V30.5556H36.1111V13.8889Z" fill="#F79F35"/>
</svg>
