<svg width="100" height="100" viewBox="0 0 100 100" fill="none" xmlns="http://www.w3.org/2000/svg">
<path d="M69.0417 91.6668C70.1483 91.6731 71.2451 91.4591 72.2681 91.037C73.2911 90.6149 74.2198 89.9933 75 89.2084L86.2917 77.9168C87.0677 77.1361 87.5033 76.08 87.5033 74.9793C87.5033 73.8785 87.0677 72.8224 86.2917 72.0418L69.625 55.3751C68.8443 54.599 67.7883 54.1635 66.6875 54.1635C65.5867 54.1635 64.5307 54.599 63.75 55.3751L57.0833 62.0001C52.4677 60.7694 48.193 58.5038 44.5833 55.3751C41.463 51.7597 39.1985 47.487 37.9583 42.8751L44.5833 36.2084C45.3594 35.4278 45.795 34.3717 45.795 33.2709C45.795 32.1702 45.3594 31.1141 44.5833 30.3334L27.9167 13.6668C27.136 12.8907 26.0799 12.4551 24.9792 12.4551C23.8784 12.4551 22.8223 12.8907 22.0417 13.6668L10.7917 25.0001C10.0068 25.7803 9.38519 26.709 8.96311 27.732C8.54103 28.755 8.32694 29.8518 8.33333 30.9584C8.71134 46.968 15.1086 62.2471 26.25 73.7501C37.753 84.8914 53.0321 91.2887 69.0417 91.6668V91.6668ZM25 22.5418L35.7917 33.3334L30.4167 38.7084C29.9076 39.1853 29.5264 39.7823 29.308 40.4448C29.0896 41.1073 29.041 41.814 29.1667 42.5001C30.724 49.46 34.0213 55.9111 38.75 61.2501C44.0848 65.9849 50.5376 69.283 57.5 70.8334C58.1757 70.9747 58.876 70.9458 59.5378 70.7495C60.1996 70.5531 60.8023 70.1954 61.2917 69.7084L66.6667 64.2084L77.4583 75.0001L69.125 83.3334C55.3072 82.9776 42.1229 77.4631 32.1667 67.8751C22.5538 57.9147 17.0234 44.713 16.6667 30.8751L25 22.5418ZM83.3333 45.8334H91.6667C91.7747 40.8793 90.8786 35.9545 89.0323 31.356C87.186 26.7574 84.4277 22.5803 80.9238 19.0763C77.4198 15.5724 73.2427 12.8141 68.6441 10.9678C64.0456 9.12152 59.1208 8.22539 54.1667 8.33343V16.6668C58.0329 16.533 61.8854 17.196 65.4846 18.6144C69.0837 20.0328 72.3527 22.1764 75.0882 24.9119C77.8237 27.6474 79.9672 30.9164 81.3857 34.5155C82.8041 38.1147 83.4671 41.9672 83.3333 45.8334Z" fill="#F79F35"/>
<path d="M54.1667 33.3333C62.9167 33.3333 66.6667 37.0833 66.6667 45.8333H75C75 32.4167 67.5833 25 54.1667 25V33.3333Z" fill="#F79F35"/>
</svg>
