<svg width="100" height="100" viewBox="0 0 100 100" fill="none" xmlns="http://www.w3.org/2000/svg">
<g clip-path="url(#clip0_210:19)">
<path d="M6.25 0.000209425L0 6.25021L13.75 25.5065C14.3289 26.3174 15.0932 26.9781 15.9792 27.4337C16.8653 27.8892 17.8474 28.1263 18.8438 28.1252H19.2813C20.103 28.1246 20.9168 28.286 21.6761 28.6002C22.4354 28.9144 23.1253 29.3753 23.7062 29.9565L40.425 46.6752L24.0688 63.2627C21.2712 62.4392 18.3203 62.2789 15.45 62.7946C12.5797 63.3102 9.86908 64.4877 7.53312 66.2334C5.19716 67.9792 3.30013 70.2452 1.99252 72.8519C0.684914 75.4585 0.00270126 78.334 0 81.2502C0.00374665 83.9373 0.585023 86.5923 1.70445 89.0351C2.82387 91.4779 4.45529 93.6516 6.48816 95.4089C8.52104 97.1662 10.9079 98.466 13.487 99.2203C16.0661 99.9745 18.7771 100.166 21.4365 99.7806C24.0959 99.3956 26.6415 98.4434 28.9008 96.9887C31.1601 95.534 33.0803 93.6106 34.5313 91.3489C35.9823 89.0873 36.9303 86.5401 37.3109 83.8801C37.6916 81.2201 37.496 78.5093 36.7375 75.9315L53.325 59.5752L59.375 65.6252L57.4687 71.3377C57.1025 72.4388 57.0499 73.6201 57.3171 74.7494C57.5842 75.8786 58.1604 76.9112 58.9813 77.7315L79.9563 98.7065C81.1283 99.8782 82.7177 100.536 84.375 100.536C86.0323 100.536 87.6217 99.8782 88.7937 98.7065L98.7063 88.794C99.8779 87.6219 100.536 86.0325 100.536 84.3752C100.536 82.7179 99.8779 81.1285 98.7063 79.9565L77.7313 58.9815C76.911 58.1607 75.8784 57.5844 74.7492 57.3173C73.6199 57.0501 72.4386 57.1027 71.3375 57.469L65.625 59.3752L59.625 53.3752L76.375 36.8565C79.1537 37.5982 82.0656 37.6919 84.8862 37.1303C87.7068 36.5687 90.3607 35.3669 92.6434 33.6174C94.9261 31.868 96.7765 29.6176 98.052 27.04C99.3275 24.4623 99.9939 21.6262 100 18.7502C100 17.069 99.7812 15.4377 99.3625 13.894L85.9875 27.2752L75 25.0002L72.725 14.019L86.1063 0.637709C82.9231 -0.218158 79.5706 -0.219755 76.3866 0.633078C73.2026 1.48591 70.2997 3.16303 67.9705 5.49539C65.6413 7.82775 63.9682 10.7329 63.1197 13.9181C62.2712 17.1032 62.2773 20.4557 63.1375 23.6377L46.6375 40.3752L29.9563 23.7065C28.7841 22.5346 28.1254 20.9452 28.125 19.2877V18.844C28.1251 17.8487 27.8875 16.8678 27.432 15.9829C26.9765 15.098 26.3163 14.3347 25.5062 13.7565L6.25 0.000209425ZM66.5375 66.5377C66.8278 66.2467 67.1726 66.0158 67.5523 65.8583C67.9319 65.7007 68.339 65.6196 68.75 65.6196C69.161 65.6196 69.5681 65.7007 69.9477 65.8583C70.3274 66.0158 70.6722 66.2467 70.9625 66.5377L89.7125 85.2877C90.0031 85.5783 90.2335 85.9232 90.3908 86.3028C90.548 86.6824 90.6289 87.0893 90.6289 87.5002C90.6289 87.9111 90.548 88.318 90.3908 88.6976C90.2335 89.0772 90.0031 89.4222 89.7125 89.7127C89.422 90.0033 89.077 90.2337 88.6974 90.391C88.3178 90.5482 87.9109 90.6292 87.5 90.6292C87.0891 90.6292 86.6822 90.5482 86.3026 90.391C85.923 90.2337 85.578 90.0033 85.2875 89.7127L66.5375 70.9627C66.2465 70.6724 66.0156 70.3276 65.858 69.9479C65.7005 69.5683 65.6194 69.1613 65.6194 68.7502C65.6194 68.3392 65.7005 67.9322 65.858 67.5525C66.0156 67.1728 66.2465 66.828 66.5375 66.5377ZM18.75 68.7502L21.6937 70.2627L25 70.4252L26.7938 73.2065L29.575 75.0002L29.7375 78.3065L31.25 81.2502L29.7375 84.194L29.575 87.5002L26.7938 89.294L25 92.0752L21.6937 92.2377L18.75 93.7502L15.8063 92.2377L12.5 92.0752L10.7063 89.294L7.925 87.5002L7.7625 84.194L6.25 81.2502L7.7625 78.3065L7.925 75.0002L10.7063 73.2065L12.5 70.4252L15.8063 70.2627L18.75 68.7502Z" fill="#F79F35"/>
</g>
<defs>
<clipPath id="clip0_210:19">
<rect width="100" height="100" fill="white"/>
</clipPath>
</defs>
</svg>
