<svg width="100" height="100" viewBox="0 0 100 100" fill="none" xmlns="http://www.w3.org/2000/svg">
<g clip-path="url(#clip0)">
<path fill-rule="evenodd" clip-rule="evenodd" d="M72.5625 59.9252C71.3208 59.3043 65.2333 56.3127 64.1 55.896C62.9667 55.4835 62.1417 55.2793 61.3125 56.521C60.4875 57.7543 58.1167 60.546 57.3958 61.371C56.6708 62.2002 55.95 62.3002 54.7125 61.6835C53.475 61.0585 49.4833 59.7543 44.7542 55.5377C41.075 52.2543 38.5875 48.2002 37.8667 46.9585C37.1458 45.721 37.7875 45.0502 38.4083 44.4335C38.9667 43.8793 39.6458 42.9877 40.2667 42.2668C40.8875 41.5418 41.0917 41.0252 41.5042 40.196C41.9208 39.371 41.7125 38.6502 41.4 38.0293C41.0917 37.4085 38.6167 31.3127 37.5833 28.8335C36.5792 26.421 35.5583 26.7502 34.8 26.7085C34.075 26.6752 33.25 26.6668 32.425 26.6668C31.6 26.6668 30.2583 26.9752 29.125 28.2168C27.9875 29.4543 24.7917 32.4502 24.7917 38.546C24.7917 44.6377 29.225 50.5252 29.8458 51.3543C30.4667 52.1793 38.575 64.6877 50.9958 70.0502C53.9542 71.3252 56.2583 72.0877 58.0542 72.6543C61.0208 73.6002 63.7208 73.4668 65.8542 73.146C68.2292 72.7918 73.1792 70.1502 74.2125 67.2585C75.2417 64.3668 75.2417 61.8877 74.9333 61.371C74.625 60.8543 73.8 60.546 72.5583 59.9252H72.5625ZM49.9708 90.771H49.9542C42.5768 90.7723 35.3349 88.7892 28.9875 85.0293L27.4875 84.1377L11.8958 88.2293L16.0583 73.0293L15.0792 71.471C10.9547 64.9058 8.77206 57.3076 8.78333 49.5543C8.79167 26.846 27.2667 8.371 49.9875 8.371C60.9875 8.371 71.3292 12.6627 79.1042 20.446C82.9391 24.2651 85.9786 28.8067 88.047 33.8081C90.1153 38.8095 91.1714 44.1713 91.1542 49.5835C91.1458 72.2918 72.6708 90.771 49.9708 90.771V90.771ZM85.0208 14.5335C80.43 9.91235 74.9676 6.24824 68.9504 3.75351C62.9331 1.25877 56.4806 -0.0169844 49.9667 0.00017074C22.6583 0.00017074 0.425 22.2293 0.416667 49.5502C0.4125 58.2835 2.69167 66.8085 7.02917 74.321L0 100L26.2667 93.1085C33.5328 97.0673 41.6754 99.1417 49.95 99.1418H49.9708C77.2792 99.1418 99.5125 76.9127 99.5208 49.5877C99.541 43.0763 98.2698 36.6256 95.7809 30.6086C93.2921 24.5917 89.6348 19.128 85.0208 14.5335" fill="#F79F35"/>
</g>
<defs>
<clipPath id="clip0">
<rect width="100" height="100" fill="white"/>
</clipPath>
</defs>
</svg>
