<svg width="100" height="100" viewBox="0 0 100 100" fill="none" xmlns="http://www.w3.org/2000/svg">
<path d="M50 8.33337C27.025 8.33337 8.33333 27.025 8.33333 50C8.33333 72.975 27.025 91.6667 50 91.6667C72.975 91.6667 91.6667 72.975 91.6667 50C91.6667 27.025 72.975 8.33337 50 8.33337ZM16.6667 50C16.6667 46.2542 17.3167 42.6584 18.4625 39.2959L25 45.8334L33.3333 54.1667V62.5L41.6667 70.8334L45.8333 75V83.0459C29.4208 80.9834 16.6667 66.9667 16.6667 50ZM76.375 70.3042C73.6542 68.1125 69.5292 66.6667 66.6667 66.6667V62.5C66.6667 60.2899 65.7887 58.1703 64.2259 56.6075C62.6631 55.0447 60.5435 54.1667 58.3333 54.1667H41.6667V41.6667C43.8768 41.6667 45.9964 40.7887 47.5592 39.2259C49.122 37.6631 50 35.5435 50 33.3334V29.1667H54.1667C56.3768 29.1667 58.4964 28.2887 60.0592 26.7259C61.622 25.1631 62.5 23.0435 62.5 20.8334V19.1209C74.7 24.075 83.3333 36.0417 83.3333 50C83.3326 57.353 80.8845 64.4965 76.375 70.3042V70.3042Z" fill="#F79F35"/>
</svg>
