<svg width="100" height="100" viewBox="0 0 100 100" fill="none" xmlns="http://www.w3.org/2000/svg">
<path d="M50 93.75C38.3968 93.75 27.2688 89.1406 19.0641 80.9359C10.8594 72.7312 6.25 61.6032 6.25 50C6.25 38.3968 10.8594 27.2688 19.0641 19.0641C27.2688 10.8594 38.3968 6.25 50 6.25C61.6032 6.25 72.7312 10.8594 80.9359 19.0641C89.1406 27.2688 93.75 38.3968 93.75 50C93.75 61.6032 89.1406 72.7312 80.9359 80.9359C72.7312 89.1406 61.6032 93.75 50 93.75ZM50 100C63.2608 100 75.9785 94.7322 85.3553 85.3553C94.7322 75.9785 100 63.2608 100 50C100 36.7392 94.7322 24.0215 85.3553 14.6447C75.9785 5.26784 63.2608 0 50 0C36.7392 0 24.0215 5.26784 14.6447 14.6447C5.26784 24.0215 0 36.7392 0 50C0 63.2608 5.26784 75.9785 14.6447 85.3553C24.0215 94.7322 36.7392 100 50 100V100Z" fill="white"/>
<path d="M29.0375 29.0377C29.3278 28.7467 29.6726 28.5158 30.0523 28.3583C30.4319 28.2007 30.839 28.1196 31.25 28.1196C31.661 28.1196 32.0681 28.2007 32.4477 28.3583C32.8274 28.5158 33.1722 28.7467 33.4625 29.0377L50 45.5815L66.5375 29.0377C66.828 28.7472 67.173 28.5167 67.5526 28.3594C67.9322 28.2022 68.3391 28.1213 68.75 28.1213C69.1609 28.1213 69.5678 28.2022 69.9474 28.3594C70.327 28.5167 70.672 28.7472 70.9625 29.0377C71.2531 29.3283 71.4835 29.6732 71.6408 30.0528C71.798 30.4324 71.8789 30.8393 71.8789 31.2502C71.8789 31.6611 71.798 32.068 71.6408 32.4476C71.4835 32.8272 71.2531 33.1722 70.9625 33.4627L54.4187 50.0002L70.9625 66.5377C71.2531 66.8283 71.4835 67.1732 71.6408 67.5528C71.798 67.9324 71.8789 68.3393 71.8789 68.7502C71.8789 69.1611 71.798 69.568 71.6408 69.9476C71.4835 70.3272 71.2531 70.6722 70.9625 70.9627C70.672 71.2533 70.327 71.4837 69.9474 71.641C69.5678 71.7982 69.1609 71.8792 68.75 71.8792C68.3391 71.8792 67.9322 71.7982 67.5526 71.641C67.173 71.4837 66.828 71.2533 66.5375 70.9627L50 54.419L33.4625 70.9627C33.172 71.2533 32.827 71.4837 32.4474 71.641C32.0678 71.7982 31.6609 71.8792 31.25 71.8792C30.8391 71.8792 30.4322 71.7982 30.0526 71.641C29.673 71.4837 29.328 71.2533 29.0375 70.9627C28.747 70.6722 28.5165 70.3272 28.3592 69.9476C28.202 69.568 28.1211 69.1611 28.1211 68.7502C28.1211 68.3393 28.202 67.9324 28.3592 67.5528C28.5165 67.1732 28.747 66.8283 29.0375 66.5377L45.5813 50.0002L29.0375 33.4627C28.7465 33.1724 28.5156 32.8276 28.358 32.4479C28.2005 32.0683 28.1194 31.6613 28.1194 31.2502C28.1194 30.8392 28.2005 30.4322 28.358 30.0525C28.5156 29.6728 28.7465 29.328 29.0375 29.0377Z" fill="white"/>
</svg>
